{"title":"Kahaani - 2012 - 1080p DVDRip - x264 - AC3 5.1 - DrC - [D!D]","uid":7192224,"size":4695174166,"categoryP":"video","categoryS":"hd___movies","magnet":"?xt=urn:btih:5d8a8f78e6fc079dd84e37fd35fc4e385bee9483&amp;dn=Kahaani+-+2012+-+1080p+DVDRip+-+x264+-+AC3+5.1+-+DrC+-+%5BD%21D%5D&amp;tr=udp%3A%2F%2Ftracker.openbittorrent.com%3A80&amp;tr=udp%3A%2F%2Fopen.demonii.com%3A1337&amp;tr=udp%3A%2F%2Ftracker.coppersurfer.tk%3A6969&amp;tr=udp%3A%2F%2Fexodus.desync.com%3A6969","seeders":0,"leechers":0,"uploader":"DiD.DrC","files":2,"time":1334668046,"description":"Kahaani - 2012 - 1080p DVDRip - x264 - AC3 5.1 - DrC - [D!D] \n\nScreenshots :\n &lt;a href=&quot;\nhttp://i.imgur.com/lIOv1.jpg&quot; rel=&quot;nofollow&quot; target=&quot;_NEW&quot;&gt;\nhttp://i.imgur.com/lIOv1.jpg&lt;/a&gt; &lt;a href=&quot;\nhttp://i.imgur.com/lTiYF.jpg&quot; rel=&quot;nofollow&quot; target=&quot;_NEW&quot;&gt;\nhttp://i.imgur.com/lTiYF.jpg&lt;/a&gt; &lt;a href=&quot;\nhttp://i.imgur.com/oxfnU.jpg&quot; rel=&quot;nofollow&quot; target=&quot;_NEW&quot;&gt;\nhttp://i.imgur.com/oxfnU.jpg&lt;/a&gt; &lt;a href=&quot;\nhttp://i.imgur.com/vDF2Z.jpg&quot; rel=&quot;nofollow&quot; target=&quot;_NEW&quot;&gt;\nhttp://i.imgur.com/vDF2Z.jpg&lt;/a&gt; &lt;a href=&quot;\nhttp://i.imgur.com/A2hUg.jpg&quot; rel=&quot;nofollow&quot; target=&quot;_NEW&quot;&gt;\nhttp://i.imgur.com/A2hUg.jpg&lt;/a&gt; &lt;a href=&quot;\nhttp://i.imgur.com/eHtpB.jpg&quot; rel=&quot;nofollow&quot; target=&quot;_NEW&quot;&gt;\nhttp://i.imgur.com/eHtpB.jpg&lt;/a&gt; &lt;a href=&quot;\nhttp://i.imgur.com/kHmRr.jpg&quot; rel=&quot;nofollow&quot; target=&quot;_NEW&quot;&gt;\nhttp://i.imgur.com/kHmRr.jpg&lt;/a&gt;\n\nRip Info :\n\nGeneral\n\nFormat                                   : Matroska\nFormat version                           : Version 2\nFile size                                : 4.37 GiB\nDuration                                 : 2h 2mn\nOverall bit rate mode                    : Variable\nOverall bit rate                         : 5 096 Kbps\n\nVideo\n\nFormat                                   : AVC\nFormat/Info                              : Advanced Video Codec\nFormat profile                           : &lt;a class=&quot;__cf_email__&quot; href=&quot;/cdn-cgi/l/email-protection&quot; data-cfemail=&quot;db93b2bcb39b97eff5ea&quot;&gt;[email&amp;#160;protected]&lt;/a&gt;&lt;script cf-hash='f9e31' type=&quot;text/javascript&quot;&gt;\n/* &lt;![CDATA[ */!function(){try{var t=&quot;currentScript&quot;in document?document.currentScript:function(){for(var t=document.getElementsByTagName(&quot;script&quot;),e=t.length;e--;)if(t[e].getAttribute(&quot;cf-hash&quot;))return t[e]}();if(t&amp;&amp;t.previousSibling){var e,r,n,i,c=t.previousSibling,a=c.getAttribute(&quot;data-cfemail&quot;);if(a){for(e=&quot;&quot;,r=parseInt(a.substr(0,2),16),n=2;a.length-n;n+=2)i=parseInt(a.substr(n,2),16)^r,e+=String.fromCharCode(i);e=document.createTextNode(e),c.parentNode.replaceChild(e,c)}}}catch(u){}}();/* ]]&gt; */&lt;/script&gt;\nFormat settings, CABAC                   : Yes\nFormat settings, ReFrames                : 3 frames\nCodec ID                                 : V_MPEG4/ISO/AVC\nDuration                                 : 2h 2mn\nBit rate mode                            : Variable\nBit rate                                 : 4 647 Kbps\nMaximum bit rate                         : 40.0 Mbps\nWidth                                    : 1 920 pixels\nHeight                                   : 816 pixels\nDisplay aspect ratio                     : 2.35:1\nFrame rate                               : 23.976 fps\nColor space                              : YUV\nChroma subsampling                       : 4:2:0\nBit depth                                : 8 bits\nScan type                                : Progressive\nBits/(Pixel*Frame)                       : 0.124\nStream size                              : 3.90 GiB (89%)\n\n\nAudio\n\nFormat                                   : AC-3\nFormat/Info                              : Audio Coding 3\nMode extension                           : CM (complete main)\nCodec ID                                 : A_AC3\nDuration                                 : 2h 2mn\nBit rate mode                            : Constant\nBit rate                                 : 448 Kbps\nChannel(s)                               : 6 channels\nChannel positions                        : Front: L C R, Side: L R, LFE\nSampling rate                            : 48.0 KHz\nBit depth                                : 16 bits\nCompression mode                         : Lossy\nDelay relative to video                  : 15ms\nStream size                              : 394 MiB (9%)\n\n\nText\n\nFormat                                   : VobSub\nMuxing mode                              : zlib\nCodec ID                                 : S_VOBSUB\nCodec ID/Info                            : The same subtitle format used on DVDs\nLanguage                                 : Hindi\nDefault                                  : Yes\nForced                                   : No","torrent":{"xt":"urn:btih:5d8a8f78e6fc079dd84e37fd35fc4e385bee9483","amp;dn":"Kahaani+-+2012+-+1080p+DVDRip+-+x264+-+AC3+5.1+-+DrC+-+%5BD%21D%5D","amp;tr":["udp%3A%2F%2Ftracker.openbittorrent.com%3A80","udp%3A%2F%2Fopen.demonii.com%3A1337","udp%3A%2F%2Ftracker.coppersurfer.tk%3A6969","udp%3A%2F%2Fexodus.desync.com%3A6969"],"infoHash":"5d8a8f78e6fc079dd84e37fd35fc4e385bee9483","infoHashBuffer":{"type":"Buffer","data":[93,138,143,120,230,252,7,157,216,78,55,253,53,252,78,56,91,238,148,131]},"announce":[],"urlList":[]}}